<svg width="57" height="58" viewBox="0 0 57 58" fill="none" xmlns="http://www.w3.org/2000/svg">
<path id="Vector" d="M28.5 0C20.7575 0 19.7909 0.03625 16.7509 0.174C13.7156 0.319 11.6494 0.80475 9.8325 1.5225C7.95862 2.262 6.36737 3.25525 4.78325 4.86717C3.19912 6.47908 2.22062 8.09583 1.49625 10.005C0.790875 11.8538 0.311125 13.9563 0.171 17.0448C0.0285 20.1381 0 21.1217 0 29C0 36.8783 0.035625 37.8619 0.171 40.9553C0.3135 44.0413 0.790875 46.1463 1.49625 47.995C2.21182 49.9304 3.33354 51.6837 4.78325 53.1328C6.20653 54.609 7.92988 55.7506 9.8325 56.4775C11.6517 57.1928 13.718 57.6834 16.7509 57.826C19.7909 57.971 20.7575 58 28.5 58C36.2425 58 37.2091 57.9637 40.2491 57.826C43.282 57.681 45.3506 57.1928 47.1675 56.4775C49.0691 55.7485 50.792 54.6072 52.2168 53.1328C53.6679 51.685 54.7899 49.9313 55.5038 47.995C56.2068 46.1463 56.6889 44.0413 56.829 40.9553C56.9715 37.8619 57 36.8783 57 29C57 21.1217 56.9644 20.1381 56.829 17.0448C56.6865 13.9587 56.2068 11.8513 55.5038 10.005C54.7878 8.06978 53.6662 6.31651 52.2168 4.86717C50.7945 3.38972 49.0709 2.24796 47.1675 1.5225C45.3506 0.80475 43.282 0.316583 40.2491 0.174C37.2091 0.029 36.2425 0 28.5 0ZM28.5 5.22C36.1071 5.22 37.0144 5.25867 40.0187 5.39158C42.7975 5.5245 44.3056 5.99333 45.3079 6.3945C46.6426 6.91892 47.5879 7.54725 48.5901 8.55983C49.5853 9.57483 50.2027 10.5391 50.7181 11.8973C51.1076 12.9171 51.5731 14.4517 51.699 17.2792C51.8344 20.3387 51.8652 21.257 51.8652 29C51.8652 36.743 51.8296 37.6638 51.6895 40.7208C51.5446 43.5483 51.0815 45.0829 50.6896 46.1027C50.226 47.3613 49.4972 48.5012 48.5545 49.4426C47.6333 50.4027 46.5138 51.1424 45.277 51.6079C44.2795 52.0042 42.7476 52.4779 39.9689 52.606C36.9431 52.7438 36.0525 52.7752 28.4288 52.7752C20.8026 52.7752 19.912 52.7389 16.8886 52.5963C14.1075 52.4489 12.5756 51.9777 11.5781 51.5789C10.3405 51.113 9.22136 50.3706 8.303 49.4063C7.34963 48.4753 6.61844 47.3345 6.1655 46.0713C5.77362 45.0563 5.31288 43.4976 5.168 40.6701C5.06113 37.6251 5.02313 36.685 5.02313 28.9638C5.02313 21.2401 5.06113 20.2976 5.168 17.2163C5.31288 14.3888 5.77362 12.8325 6.1655 11.8175C6.66425 10.44 7.30312 9.4975 8.303 8.48008C9.29813 7.4675 10.2268 6.815 11.5781 6.30992C12.5756 5.90875 14.0743 5.4375 16.853 5.2925C19.8811 5.18375 20.7717 5.1475 28.3931 5.1475L28.5 5.22ZM28.5 14.1085C26.5781 14.1085 24.6751 14.4937 22.8995 15.242C21.124 15.9904 19.5106 17.0873 18.1517 18.4701C16.7927 19.8529 15.7147 21.4946 14.9793 23.3013C14.2438 25.108 13.8652 27.0444 13.8652 29C13.8652 30.9556 14.2438 32.892 14.9793 34.6987C15.7147 36.5055 16.7927 38.1471 18.1517 39.5299C19.5106 40.9127 21.124 42.0096 22.8995 42.758C24.6751 43.5063 26.5781 43.8915 28.5 43.8915C32.3814 43.8915 36.1038 42.3226 38.8483 39.5299C41.5929 36.7372 43.1348 32.9495 43.1348 29C43.1348 25.0505 41.5929 21.2628 38.8483 18.4701C36.1038 15.6774 32.3814 14.1085 28.5 14.1085ZM28.5 38.6667C23.2512 38.6667 19 34.3408 19 29C19 23.6592 23.2512 19.3333 28.5 19.3333C33.7487 19.3333 38 23.6592 38 29C38 34.3408 33.7487 38.6667 28.5 38.6667ZM47.1343 13.5212C47.1013 14.4218 46.7265 15.2742 46.0887 15.8994C45.451 16.5246 44.5998 16.874 43.7142 16.874C42.8287 16.874 41.9775 16.5246 41.3398 15.8994C40.702 15.2742 40.3272 14.4218 40.2943 13.5212C40.2943 12.5983 40.6546 11.7131 41.2959 11.0605C41.9373 10.4079 42.8072 10.0413 43.7142 10.0413C44.6213 10.0413 45.4912 10.4079 46.1326 11.0605C46.7739 11.7131 47.1343 12.5983 47.1343 13.5212Z" fill="#125B88"/>
</svg>
