<svg width="846" height="225" viewBox="0 0 846 225" fill="none" xmlns="http://www.w3.org/2000/svg">
<g clip-path="url(#clip0_382_28)">
<path d="M187.263 162.215C159.874 162.215 137.493 139.815 137.493 112.403C137.493 84.9914 159.874 62.7686 187.263 62.7686C214.652 62.7686 236.856 84.9914 236.856 112.403C236.856 139.815 214.652 162.215 187.263 162.215ZM162.289 112.403C162.289 126.295 173.383 137.398 187.263 137.398C201.143 137.398 212.237 126.295 212.237 112.403C212.237 98.512 200.949 87.4087 187.263 87.4087C173.576 87.4087 162.289 98.7054 162.289 112.403Z" fill="#0F3B5B"/>
<path d="M245.728 69.4403L270.525 62.5913V67.4097C276.08 64.6379 282.376 63.1553 288.849 63.1553C308.638 63.1553 325.303 77.2239 329.924 96.4815C330.842 100.736 330.665 104.072 330.842 108.52L331.035 162.409H306.238V108.342C306.238 103.717 306.802 101.3 304.387 97.0455C301.247 91.3085 295.692 87.7954 288.849 87.7954C279.783 87.7954 271.266 95.5791 270.525 105.2V162.425H245.728V69.4403Z" fill="#0F3B5B"/>
<path d="M340.277 112.403C340.277 84.9914 362.659 62.7686 390.048 62.7686C399.113 62.7686 407.631 65.1698 414.845 69.4403V0L439.641 6.4783V162.231H414.845V155.56C407.631 159.814 399.113 162.231 390.048 162.231C362.659 162.231 340.277 140.009 340.277 112.419M414.845 110.196C413.733 97.4162 403.01 87.6021 390.048 87.6021C376.168 87.6021 365.074 98.7215 365.074 112.419C365.074 126.117 376.168 137.414 390.048 137.414C402.994 137.414 413.733 127.407 414.845 114.821V110.196Z" fill="#0F3B5B"/>
<path d="M523.273 69.4402V62.7686L548.07 69.4402V162.038H523.273V155.737C515.867 159.814 507.542 162.215 498.477 162.215C471.088 162.215 448.884 139.992 448.884 112.581C448.884 85.1686 471.088 62.7686 498.477 62.7686C507.542 62.7686 515.867 65.1697 523.273 69.4402ZM473.503 112.581C473.503 126.278 484.79 137.575 498.477 137.575C531.421 137.575 531.421 87.5698 498.477 87.5698C484.79 87.5698 473.503 98.6893 473.503 112.564" fill="#0F3B5B"/>
<path d="M656.322 112.597C656.322 140.009 634.118 162.231 606.729 162.231C597.663 162.231 589.146 159.83 581.932 155.753V225.016H556.958V69.6336L581.932 62.5913V69.6336C589.146 65.3792 597.663 62.962 606.729 62.962C634.118 62.962 656.322 85.1848 656.322 112.597ZM581.948 114.821C583.059 127.6 593.783 137.607 606.745 137.607C620.624 137.607 631.718 126.488 631.718 112.613C631.718 98.7376 620.624 87.6182 606.745 87.6182C593.799 87.6182 583.059 97.6257 581.948 110.405V114.853V114.821Z" fill="#0F3B5B"/>
<path d="M764.38 112.597C764.38 140.009 742.176 162.231 714.787 162.231C705.722 162.231 697.204 159.83 689.991 155.753V225.016H665.017V69.6336L689.991 62.5913V69.6336C697.204 65.3792 705.722 62.962 714.787 62.962C742.176 62.962 764.38 85.1848 764.38 112.597ZM690.007 114.821C691.118 127.6 701.841 137.607 714.803 137.607C728.683 137.607 739.777 126.488 739.777 112.613C739.777 98.7376 728.683 87.6182 714.803 87.6182C701.858 87.6182 691.118 97.6257 690.007 110.405V114.853V114.821Z" fill="#0F3B5B"/>
<path d="M4.37967 25.6553V55.0171H51.4772L0 121.073H36.0678L110.426 25.6553H4.37967Z" fill="#0F3B5B"/>
<path d="M126.495 70.0205H90.4272L16.0695 165.455H122.131V136.077H75.0179L126.495 70.0205Z" fill="#22DCBE"/>
<path d="M836.87 111.227C833.94 108.874 830.462 106.892 826.436 105.264C822.411 103.637 817.919 102.331 812.959 101.332C810.786 100.978 808.708 100.494 806.728 99.914C804.747 99.3338 802.976 98.6087 801.447 97.7384C799.917 96.8843 798.693 95.9013 797.792 94.8216C796.89 93.7419 796.439 92.4204 796.439 90.8895C796.439 89.1813 796.986 87.6987 798.065 86.49C799.144 85.2814 800.658 84.3145 802.606 83.6377C804.554 82.9608 806.873 82.6224 809.578 82.6224C812.283 82.6224 814.747 83.0253 817.226 83.8472C819.706 84.6529 822.057 85.8293 824.263 87.3764C824.907 87.8276 825.519 88.3111 826.131 88.8267L844.615 79.5444L844.648 79.5122C842.393 76.0796 839.656 73.1467 836.452 70.6972C833.247 68.2638 829.415 66.3783 824.939 65.073C820.463 63.7677 815.117 63.1069 808.886 63.1069C804.184 63.1069 799.675 63.816 795.344 65.2019C791.013 66.6039 787.197 68.5861 783.896 71.1645C780.595 73.7429 777.986 76.8048 776.038 80.3824C774.09 83.96 773.124 87.8598 773.124 92.1142C773.124 96.0947 773.752 99.6884 775.024 102.895C776.28 106.102 778.212 108.955 780.788 111.436C783.364 113.918 786.585 116.029 790.465 117.737C794.346 119.462 798.903 120.896 804.152 122.072C806.052 122.427 807.903 122.862 809.707 123.362C811.51 123.861 813.233 124.441 814.859 125.118C816.486 125.795 817.886 126.536 819.062 127.358C820.237 128.164 821.155 129.115 821.831 130.211C822.508 131.29 822.846 132.515 822.846 133.869C822.846 135.674 822.298 137.188 821.219 138.413C820.141 139.638 818.595 140.556 816.614 141.185C814.634 141.813 812.412 142.136 809.981 142.136C805.102 142.136 800.384 141.104 795.827 139.025C794.265 138.316 792.719 137.35 791.158 136.189L768.261 142.684C771.336 146.567 774.798 149.935 778.695 152.788C782.575 155.64 787.019 157.8 792.027 159.298C797.035 160.797 802.654 161.538 808.886 161.538C816.115 161.538 822.492 160.346 828.047 157.945C833.602 155.544 837.981 152.079 841.186 147.502C844.39 142.941 846 137.366 846 130.758C846 126.52 845.211 122.781 843.633 119.574C842.055 116.368 839.801 113.596 836.854 111.243L836.87 111.227Z" fill="#0F3B5B"/>
</g>
<defs>
<clipPath id="clip0_382_28">
<rect width="846" height="225" fill="white"/>
</clipPath>
</defs>
</svg>
