<svg width="47" height="73" viewBox="0 0 47 73" fill="none" xmlns="http://www.w3.org/2000/svg">
<path id="Vector" d="M8.48611 0C6.23545 0 4.07698 0.892711 2.48552 2.48175C0.89407 4.07078 0 6.22598 0 8.47321V64.5268C0 66.774 0.89407 68.9292 2.48552 70.5183C4.07698 72.1073 6.23545 73 8.48611 73H38.5139C40.7645 73 42.923 72.1073 44.5145 70.5183C46.1059 68.9292 47 66.774 47 64.5268V8.47321C47 6.22598 46.1059 4.07078 44.5145 2.48175C42.923 0.892711 40.7645 0 38.5139 0H8.48611ZM5.22222 8.47321C5.22222 6.67429 6.68444 5.21429 8.48611 5.21429H38.5139C40.3156 5.21429 41.7778 6.67429 41.7778 8.47321V64.5268C41.7778 66.3257 40.3156 67.7857 38.5139 67.7857H8.48611C6.68444 67.7857 5.22222 66.3257 5.22222 64.5268V8.47321ZM18.2778 57.3571C17.5853 57.3571 16.9211 57.6318 16.4314 58.1208C15.9418 58.6097 15.6667 59.2728 15.6667 59.9643C15.6667 60.6557 15.9418 61.3189 16.4314 61.8078C16.9211 62.2968 17.5853 62.5714 18.2778 62.5714H28.7222C29.4147 62.5714 30.0789 62.2968 30.5686 61.8078C31.0582 61.3189 31.3333 60.6557 31.3333 59.9643C31.3333 59.2728 31.0582 58.6097 30.5686 58.1208C30.0789 57.6318 29.4147 57.3571 28.7222 57.3571H18.2778Z" fill="#125B88"/>
</svg>
